<svg xmlns="http://www.w3.org/2000/svg" xmlns:xlink="http://www.w3.org/1999/xlink" version="1.1" x="0px" y="0px" viewBox="0 0 100 125" enable-background="new 0 0 100 100" xml:space="preserve"><g><path d="M22.708,56.118c-0.099-0.191-0.164-0.403-0.181-0.631l-0.078-1.061l-0.078,1.061c0,0.001-0.001,0.001-0.001,0.002   c-0.007,0.09-0.021,0.181-0.042,0.269c-0.034,0.138-0.1,0.258-0.165,0.378c0.084-0.056,0.178-0.096,0.286-0.096   C22.544,56.04,22.63,56.073,22.708,56.118z"/><circle cx="22.448" cy="57.726" r="0.351"/><path d="M20.785,58.366c-0.07-0.296-0.25-0.548-0.51-0.708c-0.053-0.032-0.11-0.061-0.169-0.086c0,0-0.001,0-0.001,0l-0.66-0.27   c-0.133,0.93,0.169,1.857,0.823,2.531l0.376-0.606C20.804,58.969,20.854,58.663,20.785,58.366z"/><path d="M20.295,57.109C20.295,57.109,20.295,57.11,20.295,57.109c0.084,0.035,0.165,0.075,0.242,0.122   c0.111,0.069,0.208,0.152,0.298,0.242c0.09-0.162,0.257-0.276,0.455-0.276c0.155,0,0.291,0.07,0.388,0.177   c0.085-0.186,0.234-0.334,0.419-0.419c-0.107-0.097-0.177-0.233-0.177-0.388c0-0.046,0.015-0.087,0.026-0.129   c-0.307,0.346-0.739,0.569-1.213,0.569c-0.129,0-0.26-0.016-0.391-0.047c0,0,0,0,0,0l-1.034-0.254L20.295,57.109z"/><path d="M23.704,59.246c-0.131-0.32-0.153-0.666-0.073-0.997c-0.008,0-0.015,0.005-0.024,0.005c-0.155,0-0.291-0.07-0.388-0.177   c-0.085,0.186-0.234,0.335-0.419,0.42c0.107,0.097,0.177,0.233,0.177,0.388c0,0.069-0.015,0.134-0.039,0.194   c0.295,0.092,0.559,0.263,0.764,0.505c0,0,0,0.001,0,0.001l0.691,0.817l-0.564-0.91C23.78,59.414,23.738,59.332,23.704,59.246z"/><path d="M21.39,59.39c0.17-0.144,0.363-0.249,0.57-0.313c-0.023-0.06-0.039-0.124-0.039-0.192c0-0.155,0.07-0.291,0.177-0.388   c-0.186-0.085-0.334-0.234-0.419-0.42c-0.097,0.107-0.233,0.177-0.388,0.177c-0.007,0-0.012-0.004-0.019-0.004   c0,0.001,0,0.001,0.001,0.002c0.1,0.427,0.028,0.867-0.203,1.239l-0.564,0.909l0.691-0.817C21.255,59.514,21.32,59.449,21.39,59.39   z"/><path d="M25.451,57.302l-0.66,0.27c-0.282,0.115-0.502,0.333-0.62,0.613c-0.118,0.281-0.119,0.591-0.004,0.872   c0.024,0.06,0.053,0.116,0.086,0.17l0.376,0.606C25.282,59.159,25.583,58.232,25.451,57.302z"/><path d="M23.218,57.375c0.097-0.107,0.233-0.177,0.388-0.177c0.197,0,0.363,0.113,0.453,0.274c0.153-0.154,0.334-0.278,0.541-0.363   l0.986-0.403l-1.033,0.253c0,0,0,0,0,0c-0.089,0.021-0.179,0.035-0.27,0.042c-0.041,0.003-0.082,0.005-0.123,0.005   c-0.474,0-0.903-0.21-1.206-0.54c0.007,0.034,0.02,0.065,0.02,0.101c0,0.155-0.07,0.291-0.177,0.388   C22.985,57.041,23.133,57.189,23.218,57.375z"/><path d="M22.928,54.131l0.007,0.099c1.173,0.163,2.171,0.888,2.687,1.952l0.101-0.025C25.202,55.074,24.165,54.296,22.928,54.131z"/><path d="M24.246,56.504c0.063-0.005,0.125-0.015,0.187-0.03c0,0,0,0,0,0c0,0,0,0,0,0l0.693-0.17   c-0.44-0.83-1.228-1.403-2.153-1.565l0.052,0.711c0.022,0.304,0.162,0.581,0.392,0.779C23.648,56.429,23.941,56.524,24.246,56.504z   "/><path d="M72.259,42.863c0.101-0.068,0.185-0.16,0.282-0.235c-0.176-0.039-0.344-0.104-0.508-0.179l-0.386,0.28   c-0.004,0.003-0.008,0.002-0.012,0.004c-0.041,0.026-0.086,0.044-0.134,0.044c-0.044,0-0.089-0.012-0.129-0.036l-6.362-3.834   C65,38.902,65,38.891,64.993,38.885c-0.029-0.021-0.042-0.049-0.06-0.081c-0.014-0.026-0.03-0.045-0.035-0.074   c-0.002-0.009-0.01-0.014-0.011-0.023l-0.015-0.251l-1.646-1.247v6.603c2.808-0.176,5.621-0.406,8.412-0.708   C71.858,43.065,72.073,42.989,72.259,42.863z"/><path d="M90.914,46.147c0.132,0.175,0.259,0.353,0.383,0.534c0.001,0,0.002,0,0.002,0c0.046,0.024,0.088,0.055,0.134,0.08h0.217   c-0.251-0.338-0.527-0.653-0.855-0.919c-0.046-0.037-0.105-0.047-0.155-0.076c0.068,0.084,0.123,0.178,0.189,0.264   C90.873,46.058,90.896,46.097,90.914,46.147z"/><path d="M21.841,55.639c0.015-0.062,0.025-0.124,0.029-0.188c0-0.001,0.001-0.001,0.001-0.002l0.052-0.71   c-0.925,0.161-1.714,0.735-2.154,1.565l0.693,0.17C21.072,56.625,21.691,56.249,21.841,55.639z"/><path d="M90.371,48.594C90.371,48.594,90.371,48.594,90.371,48.594c0.45,0.094,0.905,0.172,1.36,0.237   c-0.047-0.233-0.102-0.465-0.17-0.693c0-0.001,0-0.001,0-0.002c-0.065-0.218-0.157-0.424-0.274-0.612c0,0,0,0,0-0.001   c-0.227-0.367-0.493-0.706-0.753-1.049H89.28c-0.251,0-0.496-0.103-0.673-0.283c-0.001-0.001-0.001,0-0.002-0.001   c-0.284-0.291-0.532-0.617-0.736-0.97c0-0.001,0-0.002,0-0.003c-0.175-0.304-0.167-0.674,0.019-0.971   c-0.65-0.074-1.302-0.119-1.953-0.138c0.949,1.402,2.037,2.698,3.254,3.87C89.522,48.283,89.926,48.5,90.371,48.594z"/><path d="M24.898,60.268l0.056,0.091c0.698-0.664,1.138-1.596,1.138-2.634c0-0.225-0.027-0.444-0.067-0.658l-0.102,0.042   C26.132,58.274,25.75,59.447,24.898,60.268z"/><path d="M91.684,49.328c-0.403-0.057-0.804-0.128-1.203-0.208c0.626,0.46,1.352,0.754,2.132,0.835   c0.62,0.064,1.252,0.092,1.886,0.097c-0.326-0.435-0.691-0.838-1.083-1.215c0.023,0.065,0.055,0.128,0.048,0.197   c-0.01,0.123-0.068,0.24-0.167,0.323c-0.088,0.075-0.197,0.116-0.312,0.116c-0.007,0-0.014-0.001-0.02-0.001h0   c-0.007,0-0.014,0-0.021-0.001c-0.395-0.032-0.792-0.08-1.188-0.134c0,0,0,0,0,0c-0.021,0-0.044-0.001-0.066-0.005   C91.687,49.331,91.686,49.329,91.684,49.328z"/><path d="M88.303,44.97c0.182,0.316,0.405,0.609,0.659,0.869c0,0,0,0,0.001,0c0.083,0.085,0.199,0.134,0.317,0.134h0.896   c-0.411-0.497-0.855-0.967-1.331-1.404c0,0-0.001,0-0.001,0c-0.114-0.104-0.25-0.173-0.393-0.223   c-0.048,0.052-0.099,0.1-0.139,0.161c0,0.001,0,0.002,0,0.002c-0.09,0.14-0.094,0.316-0.011,0.46   C88.302,44.97,88.302,44.97,88.303,44.97z"/><path d="M21.961,54.23l0.007-0.099c-1.237,0.165-2.273,0.943-2.795,2.027l0.1,0.025C19.79,55.118,20.788,54.393,21.961,54.23z"/><path d="M92.042,47.996c0.074,0.253,0.137,0.508,0.187,0.767c0,0,0,0,0,0c0,0,0,0,0,0c0.008,0.042,0.006,0.083,0.003,0.125   c0.238,0.028,0.476,0.061,0.714,0.081c-0.273-0.424-0.608-0.807-0.982-1.147c0.022,0.059,0.059,0.11,0.077,0.171   C92.04,47.994,92.042,47.994,92.042,47.996z"/><path d="M18.972,57.109l-0.102-0.042c-0.039,0.214-0.067,0.433-0.067,0.658c0,1.037,0.441,1.969,1.138,2.634l0.056-0.091   C19.146,59.447,18.765,58.274,18.972,57.109z"/><path d="M22.448,51.131c-3.636,0-6.595,2.958-6.595,6.595s2.958,6.595,6.595,6.595s6.595-2.958,6.595-6.595   S26.084,51.131,22.448,51.131z M22.448,62.118c-2.422,0-4.392-1.971-4.392-4.393s1.97-4.392,4.392-4.392s4.392,1.97,4.392,4.392   S24.87,62.118,22.448,62.118z"/><path d="M82.208,57.303l-0.66,0.27c-0.282,0.115-0.503,0.333-0.62,0.613c-0.118,0.281-0.12,0.591-0.005,0.872   c0.024,0.06,0.053,0.116,0.086,0.169c0,0,0,0,0,0c0,0,0.001,0,0.001,0.001l0.376,0.606C82.04,59.159,82.341,58.232,82.208,57.303z"/><path d="M78.469,59.771c-0.049,0.042-0.093,0.086-0.134,0.134c0,0-0.001,0-0.001,0c0,0,0,0,0,0.001l-0.447,0.528   c0.84,0.409,1.796,0.409,2.636,0l-0.446-0.527c0-0.001-0.001,0-0.002-0.001c-0.196-0.232-0.472-0.375-0.775-0.4   C78.999,59.479,78.701,59.574,78.469,59.771z"/><path d="M77.052,57.109c0.084,0.034,0.165,0.076,0.242,0.123c0.111,0.069,0.208,0.152,0.298,0.242   c0.09-0.162,0.257-0.276,0.455-0.276c0.155,0,0.291,0.07,0.388,0.177c0.085-0.186,0.234-0.334,0.419-0.419   c-0.107-0.097-0.177-0.233-0.177-0.388c0-0.046,0.015-0.086,0.026-0.129c-0.307,0.346-0.738,0.568-1.212,0.568   c-0.129,0-0.26-0.016-0.391-0.047l-1.035-0.254L77.052,57.109z"/><path d="M78.598,55.639c0.016-0.062,0.025-0.125,0.03-0.188l0.052-0.711c-0.926,0.161-1.714,0.735-2.153,1.565l0.692,0.17   C77.828,56.625,78.448,56.249,78.598,55.639z"/><path d="M78.718,54.23l0.007-0.099c-1.237,0.165-2.274,0.943-2.795,2.027l0.101,0.025C76.547,55.118,77.546,54.392,78.718,54.23z"/><circle cx="79.205" cy="57.726" r="0.351"/><path d="M79.46,56.115c-0.099-0.193-0.16-0.405-0.176-0.627l-0.079-1.07l-0.079,1.07c-0.007,0.091-0.021,0.183-0.042,0.271   c-0.034,0.138-0.1,0.258-0.165,0.378c0.084-0.056,0.178-0.096,0.286-0.096C79.299,56.04,79.383,56.071,79.46,56.115z"/><path d="M79.975,57.375c0.097-0.107,0.233-0.177,0.388-0.177c0.197,0,0.363,0.113,0.454,0.273c0.153-0.154,0.335-0.278,0.541-0.362   l0.987-0.403L81.31,56.96c-0.088,0.021-0.178,0.035-0.27,0.042c-0.041,0.003-0.082,0.005-0.123,0.005   c-0.394,0-0.77-0.14-1.069-0.398c-0.05-0.043-0.091-0.093-0.135-0.141c0.007,0.034,0.02,0.065,0.02,0.1   c0,0.155-0.07,0.292-0.177,0.388C79.741,57.041,79.89,57.189,79.975,57.375z"/><path d="M75.729,57.109l-0.102-0.042c-0.039,0.214-0.067,0.433-0.067,0.658c0,1.037,0.44,1.969,1.138,2.633l0.056-0.091   C75.902,59.447,75.521,58.273,75.729,57.109z"/><path d="M81.003,56.504c0.062-0.005,0.125-0.015,0.188-0.03l0.692-0.17c-0.439-0.83-1.227-1.403-2.153-1.565l0.053,0.711   c0.022,0.304,0.161,0.58,0.392,0.779S80.702,56.525,81.003,56.504z"/><path d="M21.712,59.771c-0.049,0.041-0.094,0.086-0.135,0.135l-0.447,0.529c0.84,0.408,1.795,0.408,2.635,0l-0.447-0.529   c0,0,0,0,0-0.001c-0.197-0.232-0.472-0.374-0.775-0.4C22.24,59.474,21.945,59.574,21.712,59.771z"/><path d="M79.684,54.13l0.007,0.099c1.173,0.162,2.172,0.888,2.688,1.952l0.1-0.024C81.958,55.074,80.921,54.295,79.684,54.13z"/><path d="M81.655,60.269l0.056,0.09c0.698-0.664,1.138-1.596,1.138-2.633c0-0.225-0.027-0.444-0.067-0.658l-0.101,0.041   C82.889,58.273,82.508,59.447,81.655,60.269z"/><path d="M77.541,58.366c-0.069-0.296-0.25-0.548-0.51-0.708c-0.053-0.033-0.11-0.062-0.169-0.086l-0.66-0.27   c-0.133,0.93,0.168,1.856,0.822,2.531l0.376-0.606C77.562,58.969,77.611,58.663,77.541,58.366z"/><path d="M22.448,61.268c-0.571,0-1.139-0.148-1.661-0.426l-0.063,0.075c0.516,0.28,1.097,0.454,1.725,0.454   s1.209-0.174,1.724-0.454l-0.064-0.075C23.587,61.12,23.019,61.268,22.448,61.268z"/><path d="M79.205,61.268c-0.571,0-1.14-0.148-1.662-0.427l-0.064,0.075c0.516,0.28,1.098,0.454,1.725,0.454   c0.627,0,1.209-0.174,1.725-0.454l-0.063-0.075C80.345,61.12,79.776,61.268,79.205,61.268z"/><path d="M77.952,59.585c0.059-0.071,0.124-0.137,0.195-0.195c0.17-0.144,0.362-0.249,0.568-0.313   c-0.024-0.06-0.039-0.124-0.039-0.192c0-0.155,0.07-0.292,0.177-0.388c-0.186-0.085-0.334-0.234-0.419-0.42   c-0.097,0.107-0.233,0.177-0.388,0.177c-0.007,0-0.012-0.004-0.019-0.004c0,0.001,0,0.001,0.001,0.002   c0.101,0.427,0.028,0.867-0.202,1.239l-0.564,0.909L77.952,59.585C77.952,59.585,77.952,59.585,77.952,59.585z"/><path d="M80.584,59.49c-0.048-0.078-0.09-0.159-0.124-0.244c-0.132-0.32-0.153-0.666-0.073-0.997c-0.008,0-0.015,0.005-0.024,0.005   c-0.155,0-0.291-0.07-0.388-0.177c-0.085,0.186-0.234,0.334-0.419,0.419c0.107,0.097,0.177,0.233,0.177,0.388   c0,0.069-0.015,0.134-0.039,0.194c0.295,0.092,0.56,0.263,0.764,0.505c0,0.001,0,0.001,0.001,0.002l0.687,0.812l-0.562-0.907   C80.584,59.491,80.584,59.49,80.584,59.49z"/><path d="M60.972,44.461l-0.237,0.012c0.07,0.08,0.152,0.15,0.216,0.235c0,0,0.001,0,0.001,0.001   c0.232,0.308,0.395,0.657,0.495,1.024c1.59-0.139,3.197-0.206,4.798-0.183c0.001,0,0.001,0.001,0.002,0.001   c0.134,0.002,0.266,0.023,0.394,0.062c0.359,0.112,0.653,0.357,0.828,0.69s0.21,0.714,0.098,1.073c0,0,0,0,0,0.001   c-0.374,1.204-0.889,2.365-1.533,3.451c-1.629,2.753-4.365,4.593-7.473,5.095c-0.62,0.754-1.394,1.359-2.276,1.754l13.073-0.244   c-0.21-2.47,0.54-4.834,1.953-6.701c-0.34,0.243-0.754,0.389-1.203,0.389c-1.148,0-2.082-0.934-2.082-2.082   s0.934-2.082,2.082-2.082c1.147,0,2.081,0.934,2.081,2.082c0,0.319-0.078,0.619-0.207,0.889c1.484-1.583,3.491-2.688,5.779-2.999   c2.645-0.361,5.188,0.381,7.171,1.87l3.3-1.073c-1.015-1.049-1.937-2.184-2.753-3.399c-4.156-0.002-8.389-0.036-12.586-0.101   c-0.001,0-0.002,0.001-0.003,0.001c-0.001,0-0.002,0-0.004,0c-0.346-0.005-0.688-0.097-0.992-0.267   c-0.177-0.099-0.347-0.211-0.514-0.329c-2.77,0.295-5.558,0.523-8.341,0.694c-0.021,0.006-0.036,0.025-0.06,0.025   c-0.017,0-0.027-0.015-0.043-0.018C62.28,44.372,61.623,44.429,60.972,44.461C60.972,44.461,60.972,44.461,60.972,44.461z"/><path d="M11.963,51.023c1.402-1.176,2.722-2.468,3.961-3.821c-0.22,0.025-0.443,0.047-0.663,0.072c-0.002,0-0.003,0-0.005,0   c-0.591,0.07-1.17,0.219-1.722,0.442c0,0,0,0.001-0.001,0.001c-1.82,0.736-3.425,1.938-4.641,3.478c0,0-0.001,0-0.001,0   c-0.235,0.297-0.439,0.621-0.623,0.958c0.5-0.033,0.998-0.079,1.489-0.149C10.572,51.89,11.334,51.551,11.963,51.023z"/><path d="M8.037,58.93c0.005-0.078,0.002-0.158-0.008-0.235c-0.447,0.014-0.895,0.035-1.341,0.063c0,0,0,0,0,0   c-0.046,0.004-0.077,0.041-0.084,0.085c0.013,0.105,0.018,0.211,0.032,0.316c0,0,0.001,0.001,0.001,0.001   c0.003,0.024,0.017,0.044,0.022,0.067c0.018,0.035,0.05,0.063,0.088,0.052c0.001,0,0.002,0.001,0.003,0.001   c0.376-0.035,0.75-0.087,1.113-0.153C7.958,59.107,8.03,59.027,8.037,58.93z"/><path d="M17.215,51.523l-0.138-0.116c0,0-0.001,0-0.001,0c-0.122-0.103-0.276-0.159-0.435-0.159h-0.997   c-1.25,1.519-2.005,3.457-2.035,5.58l0.214,0.162c0.003,0.002,0.002,0.007,0.005,0.009c0.008,0.006,0.017,0.01,0.024,0.017   c0.001,0.001,0.001,0.004,0.002,0.005c0.02,0.022,0.025,0.055,0.036,0.084c0.008,0.022,0.024,0.038,0.026,0.061   c0,0.004,0.005,0.007,0.005,0.011c0,0.003-0.003,0.005-0.003,0.008c0,0.003,0.004,0.006,0.004,0.009l-0.058,2.608   c-0.001,0.062-0.03,0.116-0.069,0.159l0.492,0.002l0.054-2.417C14.395,55.122,15.494,52.972,17.215,51.523z"/><path d="M13.417,57.451l-6.922,0.335c0.015,0.168,0.034,0.334,0.052,0.501c0.036-0.009,0.068-0.026,0.106-0.029   c0.002,0,0.002-0.002,0.004-0.002c0.458-0.028,0.916-0.05,1.375-0.063c0,0,0,0,0,0s0,0,0,0c0,0,0.001,0,0.001,0c0,0,0,0,0.001,0   c0.234,0.004,0.458,0.171,0.491,0.418c0.015,0.116,0.019,0.232,0.011,0.35c-0.021,0.328-0.261,0.598-0.584,0.656   c-0.313,0.057-0.636,0.096-0.959,0.132c0.153,0.116,0.338,0.192,0.54,0.193l5.897,0.018c-0.04-0.045-0.067-0.104-0.066-0.17   L13.417,57.451z"/><polygon points="12.92,60.884 12.92,60.459 12.726,60.458  "/><path d="M6.151,59.29c-0.001-0.007,0.005-0.013,0.004-0.02c-0.003-0.015-0.012-0.027-0.014-0.041c0-0.001-0.001-0.001-0.001-0.002   c-0.013-0.092-0.017-0.185-0.029-0.277c-0.002-0.008-0.01-0.011-0.01-0.019c-0.001-0.009,0.003-0.016,0.003-0.024l-0.818,0.662   c0,0,0,0.001-0.001,0.001c-0.027,0.021-0.034,0.05-0.035,0.064s-0.001,0.044,0.021,0.071c0.019,0.022,0.046,0.036,0.076,0.036   c0,0,0,0,0,0s0,0,0,0h0.979c-0.045-0.076-0.067-0.163-0.098-0.247C6.193,59.432,6.165,59.364,6.151,59.29z"/><path d="M15.012,51.247H12.46c-0.06,0.051-0.116,0.108-0.176,0.159c-0.701,0.588-1.55,0.966-2.455,1.093   c-0.58,0.082-1.168,0.131-1.758,0.163c-0.009,0.001-0.013,0.01-0.022,0.011c-0.002,0-0.004,0-0.007,0   c-0.013,0-0.034-0.004-0.053-0.007c-0.285,0.015-0.57,0.034-0.855,0.036c-0.001,0-0.001,0-0.002,0   c-0.001,0-0.001-0.001-0.002-0.001c0,0-0.001,0-0.001,0c-0.106,0-0.207-0.046-0.276-0.128c-0.063-0.074-0.094-0.169-0.086-0.267   c0.007-0.097,0.052-0.184,0.126-0.247c0,0,0,0,0-0.001s0,0,0.001,0c0,0,0,0,0-0.001c0,0,0,0,0,0c0.332-0.285,0.68-0.552,1.034-0.81   h-0.14c-0.741,0.548-1.439,1.154-2.085,1.821C5.41,53.369,5.25,53.765,5.25,54.184v0.111c0,0.117,0.096,0.213,0.213,0.213h0.191   c0,0,0,0,0,0s0,0,0,0c0,0,0,0,0.001,0c0.393,0.002,0.713,0.322,0.712,0.714c-0.001,0.685,0.026,1.372,0.075,2.058l6.672-0.564   C13.166,54.66,13.861,52.774,15.012,51.247z"/><path d="M13.013,50.747h2.405c1.664-1.919,4.086-3.163,6.834-3.257c2.525-0.077,4.939,0.817,6.788,2.544   c1.786,1.668,2.833,3.913,2.98,6.343l0.607-0.036c-0.428-2.344-0.637-4.73-0.623-7.112c-0.045,0.045-0.107,0.073-0.176,0.073H31.68   c0,0.001,0,0.002,0,0.002c0,0.001-0.002,0.002-0.002,0.003c-0.063,0.255-0.28,0.436-0.542,0.452c0,0,0,0,0,0   c-0.003,0-0.006,0-0.008,0c-0.003,0-0.005,0-0.007,0h0c-0.077,0.005-0.155,0.005-0.233,0.007v0.278c0,0.138-0.112,0.25-0.25,0.25   s-0.25-0.112-0.25-0.25v-0.278c-0.078-0.002-0.156-0.002-0.233-0.007h0c-0.005,0-0.01,0-0.015,0   c-0.262-0.016-0.48-0.198-0.543-0.453c0-0.001-0.001-0.001-0.001-0.002c0-0.001,0-0.002,0-0.002h-0.159   c-0.138,0-0.25-0.112-0.25-0.25s0.112-0.25,0.25-0.25h0.159c0-0.001,0-0.002,0-0.002c0-0.001,0.001-0.001,0.001-0.002   c0.063-0.255,0.28-0.437,0.542-0.454c0,0,0,0,0,0c0.083-0.005,0.166,0.003,0.249,0V48.2c0-0.138,0.112-0.25,0.25-0.25   s0.25,0.112,0.25,0.25v0.145c0.083,0.003,0.166-0.005,0.249,0c0,0,0,0,0,0c0.263,0.017,0.48,0.198,0.542,0.453   c0,0.001,0.001,0.001,0.002,0.002c0,0.001,0,0.002,0,0.002h0.149c0.068,0,0.129,0.028,0.174,0.072   c0.001-0.063-0.003-0.127-0.001-0.19c0.023-1.132,0.556-2.166,1.415-2.845l-2.595,0.13c0,0-0.001,0-0.001,0   c-4.695,0.234-9.437,0.625-14.124,1.148C15.55,48.404,14.307,49.609,13.013,50.747z"/><path d="M5.654,55.008H5.521v0.213c0,0.054,0.043,0.098,0.097,0.098h0.253c0-0.032-0.003-0.065-0.003-0.097   C5.868,55.104,5.772,55.008,5.654,55.008z"/><path d="M5.546,55.804c0.016,0.019,0.039,0.033,0.066,0.035l0.278,0.021c0-0.014-0.001-0.028-0.001-0.041h-0.27   C5.592,55.818,5.57,55.807,5.546,55.804z"/><path d="M94.744,50.56c-0.03,0-0.06,0.001-0.089,0.001c-0.703,0-1.406-0.036-2.095-0.107c-0.993-0.103-1.917-0.502-2.673-1.151   c0,0-0.001,0-0.001,0c-0.332-0.285-0.648-0.588-0.964-0.889c-0.047-0.04-0.097-0.076-0.142-0.119   c-0.006-0.005-0.004-0.014-0.008-0.02c-0.052-0.05-0.108-0.096-0.159-0.147l-3.223,1.048c1.719,1.46,2.942,3.511,3.321,5.897h4.74   c0-0.007-0.003-0.013-0.002-0.02c0-0.001,0.001-0.001,0.001-0.002c0.106-1.297,0.3-2.598,0.575-3.866   c0-0.001,0.001-0.001,0.001-0.001c0.047-0.22,0.244-0.379,0.469-0.379h0.251c0-0.069,0.005-0.138,0.005-0.206   C94.75,50.586,94.745,50.573,94.744,50.56z"/><path d="M93.95,55.073h0.592c0.117-1.248,0.176-2.51,0.192-3.768H94.51C94.243,52.543,94.054,53.809,93.95,55.073z"/><path d="M45.003,38.921l-9.673,6.322l1.749-0.088l7.271-5.332c0.596-0.437,1.223-0.819,1.872-1.155   c-0.031-0.475-0.187-0.928-0.469-1.316c0,0-0.001,0-0.001,0c-0.092-0.127-0.193-0.248-0.293-0.369   c-0.219,0.085-0.436,0.177-0.655,0.265c0.142,0.162,0.291,0.319,0.416,0.492c0.001,0.001,0,0.002,0.001,0.003   c0.001,0.001,0.002,0.001,0.003,0.002c0.14,0.213,0.182,0.435,0.137,0.651S45.188,38.799,45.003,38.921z"/><path d="M88.555,58.981c1.919-0.436,3.771-1.107,5.509-2.028c0.164-0.087,0.286-0.238,0.335-0.417c0-0.001,0.001-0.001,0.002-0.002   l0.182-0.657h-6.196C88.468,56.912,88.523,57.952,88.555,58.981z"/><path d="M89.284,59.325c0.279,0.319,0.669,0.522,1.101,0.549l1.59,0.1l0.826-1.072l-1.733-0.108   C90.482,58.996,89.886,59.17,89.284,59.325z"/><path d="M78.257,49.539c1.388-0.16,2.736,0.038,3.954,0.519l0.316-0.27c0,0,0-0.001,0.001-0.001c0.256-0.219,0.55-0.384,0.874-0.49   l0.933-0.304c-1.833-1.267-4.121-1.891-6.508-1.568c-4.875,0.664-8.402,5.122-7.971,9.999l1.123-0.021   C71.135,53.358,74.198,50.01,78.257,49.539z"/><polygon points="69.633,57.928 69.622,57.929 69.621,57.928 53.843,58.222 53.841,58.223 53.836,58.223 53.836,58.223    30.642,58.655 30.724,59.825 70.976,59.825 70.965,57.903  "/><path d="M87.911,55.536c0.011-0.027,0.013-0.055,0.033-0.076c0.006-0.006,0.011-0.01,0.017-0.015   c0.004-0.004,0.003-0.01,0.007-0.013l0.262-0.21c-0.363-2.404-1.624-4.456-3.398-5.864l-1.276,0.415   c-0.261,0.085-0.497,0.217-0.702,0.394c0,0,0,0-0.001,0c0,0,0,0.001,0,0.001l-0.136,0.117c2.487,1.179,4.336,3.566,4.675,6.495   l0.273,2.36l0.209,0.001c0.063-0.012,0.124-0.031,0.187-0.043c-0.033-1.143-0.093-2.301-0.186-3.449   c0-0.004,0.003-0.006,0.003-0.01c0-0.004-0.004-0.006-0.004-0.01c0-0.005,0.005-0.008,0.006-0.014   C87.881,55.584,87.899,55.563,87.911,55.536z"/><path d="M32.785,57.109l-1.582,0.068c-0.003,0-0.007,0-0.011,0c-0.057,0-0.108-0.025-0.153-0.061   c-0.014-0.011-0.022-0.023-0.033-0.037c-0.013-0.016-0.031-0.025-0.04-0.044c-0.008-0.016,0.002-0.032-0.003-0.048   c-0.005-0.018-0.021-0.029-0.022-0.048c-0.001-0.018,0.014-0.029,0.017-0.046c0.005-0.033,0.014-0.057,0.031-0.086   c0.017-0.029,0.035-0.048,0.062-0.068c0.013-0.01,0.017-0.028,0.032-0.036l0.444-0.211c-0.12-2.334-1.117-4.492-2.829-6.091   c-1.751-1.635-4.025-2.491-6.43-2.41c-2.445,0.083-4.623,1.125-6.185,2.757h0.557c0.276,0,0.545,0.099,0.757,0.276   c0,0,0.001,0,0.001,0l0.215,0.181c1.202-0.888,2.662-1.454,4.265-1.567c2.161-0.149,4.25,0.547,5.886,1.967   c1.635,1.42,2.619,3.393,2.771,5.553l0.07,0.998l2.844-0.053C33.142,57.85,32.911,57.506,32.785,57.109z"/><path d="M51.858,37.111c1.318-0.081,2.655-0.091,3.976-0.029c0.001,0,0.001,0.001,0.001,0.001c0.696,0.032,1.383,0.165,2.042,0.395   c1.176,0.41,2.041,1.372,2.357,2.543v-3.992c-3.687-0.453-7.424-0.462-11.115-0.019c-0.418,0.05-0.831,0.136-1.243,0.225   c0.373,0.429,0.704,0.89,0.979,1.388C49.829,37.345,50.835,37.173,51.858,37.111z"/><path d="M58.999,55.318c2.745-0.591,5.143-2.277,6.604-4.744c0.087-0.147,0.153-0.306,0.235-0.456   c-0.922,1.281-2.061,2.409-3.356,3.306c0,0,0,0,0,0c0,0,0,0.001-0.001,0.001c-0.12,0.082-0.262,0.126-0.406,0.126   c-0.023,0-0.047-0.001-0.07-0.003c-0.067-0.007-0.127-0.033-0.188-0.058c-0.77,0.628-1.647,1.114-2.58,1.443   C59.164,55.067,59.08,55.191,58.999,55.318z"/><path d="M61.968,53.003c-0.024-0.015-0.044-0.036-0.065-0.055c0.005,0.007,0.002,0.017,0.007,0.024   C61.925,52.99,61.949,52.992,61.968,53.003z"/><path d="M60.945,43.962c0.592-0.03,1.188-0.082,1.781-0.117v-6.964l-1.992-0.723v7.815L60.945,43.962   C60.945,43.962,60.945,43.962,60.945,43.962z"/><path d="M34.782,58.077c0.011,0,0.022,0.001,0.035,0c0,0,0,0,0,0l19.016-0.355c1.527-0.029,2.951-0.666,3.994-1.722   c-0.174,0.016-0.345,0.048-0.521,0.055l-23.98,1.03C33.572,57.671,34.128,58.077,34.782,58.077z"/><path d="M62.074,53.045c-0.024-0.008-0.049-0.012-0.071-0.023c0.018,0.007,0.031,0.025,0.051,0.027   C62.061,53.05,62.067,53.045,62.074,53.045z"/><path d="M46.158,37.059c0.297,0.41,0.478,0.88,0.544,1.375c0.541-0.254,1.096-0.472,1.664-0.656   c-0.291-0.511-0.635-0.988-1.036-1.42c-0.447,0.116-0.891,0.244-1.324,0.404c-0.001,0-0.001,0-0.002,0   c-0.021,0.008-0.041,0.017-0.061,0.025C46.014,36.878,46.09,36.965,46.158,37.059C46.157,37.059,46.158,37.059,46.158,37.059z"/><path d="M66.174,47.085c-0.006,0-0.009,0.006-0.015,0.006c-0.001,0-0.002,0-0.004,0c-0.898-0.013-1.818,0.002-2.717,0.044   c-0.093,0.004-0.172,0.068-0.196,0.158c0,0,0,0,0,0c-0.469,1.718-0.803,3.487-1,5.259c1.533-1.117,2.827-2.58,3.74-4.238   c0.166-0.301,0.293-0.623,0.378-0.958c0.028-0.114-0.041-0.23-0.155-0.259C66.194,47.098,66.186,47.087,66.174,47.085z"/><path d="M61.443,53.137c-0.055-0.116-0.09-0.24-0.076-0.371c0.195-1.928,0.555-3.857,1.068-5.733c0-0.002,0.002-0.002,0.003-0.004   c0.136-0.492,0.568-0.837,1.079-0.861c0.001,0,0.001-0.001,0.002-0.001c0.831-0.037,1.681-0.049,2.525-0.04c0,0,0,0,0,0   c0.001,0,0.002,0,0.003,0c0.096,0.001,0.19,0.014,0.283,0.038c0.305,0.08,0.56,0.272,0.719,0.543   c0.039,0.066,0.049,0.141,0.074,0.212c-0.005-0.133-0.033-0.263-0.096-0.385c-0.113-0.215-0.303-0.373-0.534-0.445   c-0.083-0.026-0.169-0.04-0.255-0.041c0,0-0.001,0-0.001,0c-1.562-0.024-3.139,0.043-4.697,0.178   c0.016,0.159,0.024,0.32,0.014,0.482c0,0,0,0,0,0c0,0,0,0,0,0c-0.159,2.649-0.846,5.184-2.001,7.559   C60.231,53.98,60.866,53.599,61.443,53.137z"/><path d="M58.516,55.153c-0.53,0.137-1.072,0.229-1.621,0.261l-9.929,0.585l10.317-0.443c0.345-0.015,0.684-0.059,1.021-0.108   C58.379,55.352,58.449,55.254,58.516,55.153z"/><path d="M37.987,45.11l2.034-0.102c0.083-0.591,0.238-1.167,0.459-1.726L37.987,45.11z"/><path d="M40.598,46.193C40.598,46.193,40.598,46.193,40.598,46.193c0.433,0.118,0.89,0.107,1.317-0.03c0,0,0,0,0,0   c0.079-0.026,0.137-0.096,0.146-0.178c0,0,0-0.001,0-0.001v0c0.018-0.156,0.053-0.309,0.082-0.464   c-0.537,0.074-1.077,0.124-1.62,0.124c-0.02,0-0.041-0.001-0.061-0.001c-0.007,0.114-0.02,0.227-0.022,0.342   C40.439,46.082,40.504,46.167,40.598,46.193z"/><circle cx="70.106" cy="49.04" r="1.582"/><path d="M32.501,48.694c-0.051,2.55,0.166,5.109,0.628,7.618l23.737-1.398c0.694-0.041,1.372-0.197,2.03-0.413   c1.263-2.443,1.994-5.072,2.158-7.821c0,0,0,0,0,0c0,0,0,0,0,0c0.008-0.14,0.003-0.279-0.012-0.417l-15.318,1.488   c-0.008,0-0.016,0.001-0.024,0.001c-0.127,0-0.236-0.097-0.249-0.226c-0.013-0.138,0.087-0.26,0.225-0.273l15.264-1.483   c-0.086-0.272-0.215-0.53-0.388-0.76c0,0,0,0,0-0.001c-0.136-0.182-0.296-0.347-0.463-0.503l-16.95,0.847c-0.004,0-0.009,0-0.013,0   c-0.001,0-0.001-0.001-0.001-0.001c-0.151,0.034-0.306,0.05-0.458,0.078c-0.043,0.202-0.083,0.405-0.108,0.611c0,0,0,0,0,0.001   c-0.032,0.275-0.224,0.509-0.488,0.596c0,0-0.001,0-0.001,0c-0.281,0.091-0.572,0.136-0.863,0.136c-0.249,0-0.497-0.033-0.74-0.1   c-0.312-0.086-0.528-0.373-0.524-0.697c0.002-0.157,0.018-0.312,0.03-0.468l-5.487,0.275   C33.305,46.278,32.527,47.415,32.501,48.694z"/><path d="M43.068,44.856c0.173-0.04,0.305-0.178,0.338-0.351c0,0,0.001-0.001,0.001-0.001c0.102-0.544,0.153-1.099,0.152-1.649   c0,0,0,0,0-0.001c-0.001-0.241-0.191-0.436-0.431-0.443c0,0,0,0,0,0c-0.37-0.013-0.746,0-1.117,0.038c-0.001,0-0.001,0-0.002,0   c-0.401,0.04-0.754,0.292-0.922,0.658c0,0,0,0.001,0,0.001c-0.297,0.647-0.487,1.325-0.58,2.022   C41.371,45.131,42.229,45.048,43.068,44.856C43.068,44.856,43.068,44.856,43.068,44.856z"/><path d="M79.205,50.631c-3.912,0-7.095,3.183-7.095,7.095s3.183,7.095,7.095,7.095s7.095-3.183,7.095-7.095   S83.117,50.631,79.205,50.631z M79.205,62.118c-2.422,0-4.393-1.971-4.393-4.393s1.971-4.392,4.393-4.392s4.392,1.97,4.392,4.392   S81.627,62.118,79.205,62.118z"/></g></svg>